<?xml version="1.0" encoding="utf-8" standalone="no"?>
<!DOCTYPE svg PUBLIC "-//W3C//DTD SVG 1.1//EN"
  "http://www.w3.org/Graphics/SVG/1.1/DTD/svg11.dtd">
<svg xmlns:xlink="http://www.w3.org/1999/xlink" width="491.718437pt" height="297.190125pt" viewBox="0 0 491.718437 297.190125" xmlns="http://www.w3.org/2000/svg" version="1.1">
 <metadata>
  <rdf:RDF xmlns:dc="http://purl.org/dc/elements/1.1/" xmlns:cc="http://creativecommons.org/ns#" xmlns:rdf="http://www.w3.org/1999/02/22-rdf-syntax-ns#">
   <cc:Work>
    <dc:type rdf:resource="http://purl.org/dc/dcmitype/StillImage"/>
    <dc:date>2023-03-04T18:15:43.707919</dc:date>
    <dc:format>image/svg+xml</dc:format>
    <dc:creator>
     <cc:Agent>
      <dc:title>Matplotlib v3.6.3, https://matplotlib.org/</dc:title>
     </cc:Agent>
    </dc:creator>
   </cc:Work>
  </rdf:RDF>
 </metadata>
 <defs>
  <style type="text/css">*{stroke-linejoin: round; stroke-linecap: butt}</style>
 </defs>
 <g id="figure_1">
  <g id="patch_1">
   <path d="M 0 297.190125 
L 491.718437 297.190125 
L 491.718437 0 
L 0 0 
z
" style="fill: #ffffff"/>
  </g>
  <g id="axes_1">
   <g id="patch_2">
    <path d="M 28.942188 273.312 
L 386.062188 273.312 
L 386.062188 7.2 
L 28.942188 7.2 
z
" style="fill: #ffffff"/>
   </g>
   <g id="matplotlib.axis_1">
    <g id="xtick_1">
     <g id="line2d_1">
      <defs>
       <path id="m2bccd66c3c" d="M 0 0 
L 0 3.5 
" style="stroke: #000000; stroke-width: 0.8"/>
      </defs>
      <g>
       <use xlink:href="#m2bccd66c3c" x="39.926694" y="273.312" style="stroke: #000000; stroke-width: 0.8"/>
      </g>
     </g>
     <g id="text_1">
      <!-- −3 -->
      <g transform="translate(32.5556 287.910437) scale(0.1 -0.1)">
       <defs>
        <path id="DejaVuSans-2212" d="M 678 2272 
L 4684 2272 
L 4684 1741 
L 678 1741 
L 678 2272 
z
" transform="scale(0.015625)"/>
        <path id="DejaVuSans-33" d="M 2597 2516 
Q 3050 2419 3304 2112 
Q 3559 1806 3559 1356 
Q 3559 666 3084 287 
Q 2609 -91 1734 -91 
Q 1441 -91 1130 -33 
Q 819 25 488 141 
L 488 750 
Q 750 597 1062 519 
Q 1375 441 1716 441 
Q 2309 441 2620 675 
Q 2931 909 2931 1356 
Q 2931 1769 2642 2001 
Q 2353 2234 1838 2234 
L 1294 2234 
L 1294 2753 
L 1863 2753 
Q 2328 2753 2575 2939 
Q 2822 3125 2822 3475 
Q 2822 3834 2567 4026 
Q 2313 4219 1838 4219 
Q 1578 4219 1281 4162 
Q 984 4106 628 3988 
L 628 4550 
Q 988 4650 1302 4700 
Q 1616 4750 1894 4750 
Q 2613 4750 3031 4423 
Q 3450 4097 3450 3541 
Q 3450 3153 3228 2886 
Q 3006 2619 2597 2516 
z
" transform="scale(0.015625)"/>
       </defs>
       <use xlink:href="#DejaVuSans-2212"/>
       <use xlink:href="#DejaVuSans-33" x="83.789062"/>
      </g>
     </g>
    </g>
    <g id="xtick_2">
     <g id="line2d_2">
      <g>
       <use xlink:href="#m2bccd66c3c" x="108.591506" y="273.312" style="stroke: #000000; stroke-width: 0.8"/>
      </g>
     </g>
     <g id="text_2">
      <!-- −2 -->
      <g transform="translate(101.220412 287.910437) scale(0.1 -0.1)">
       <defs>
        <path id="DejaVuSans-32" d="M 1228 531 
L 3431 531 
L 3431 0 
L 469 0 
L 469 531 
Q 828 903 1448 1529 
Q 2069 2156 2228 2338 
Q 2531 2678 2651 2914 
Q 2772 3150 2772 3378 
Q 2772 3750 2511 3984 
Q 2250 4219 1831 4219 
Q 1534 4219 1204 4116 
Q 875 4013 500 3803 
L 500 4441 
Q 881 4594 1212 4672 
Q 1544 4750 1819 4750 
Q 2544 4750 2975 4387 
Q 3406 4025 3406 3419 
Q 3406 3131 3298 2873 
Q 3191 2616 2906 2266 
Q 2828 2175 2409 1742 
Q 1991 1309 1228 531 
z
" transform="scale(0.015625)"/>
       </defs>
       <use xlink:href="#DejaVuSans-2212"/>
       <use xlink:href="#DejaVuSans-32" x="83.789062"/>
      </g>
     </g>
    </g>
    <g id="xtick_3">
     <g id="line2d_3">
      <g>
       <use xlink:href="#m2bccd66c3c" x="177.256318" y="273.312" style="stroke: #000000; stroke-width: 0.8"/>
      </g>
     </g>
     <g id="text_3">
      <!-- −1 -->
      <g transform="translate(169.885225 287.910437) scale(0.1 -0.1)">
       <defs>
        <path id="DejaVuSans-31" d="M 794 531 
L 1825 531 
L 1825 4091 
L 703 3866 
L 703 4441 
L 1819 4666 
L 2450 4666 
L 2450 531 
L 3481 531 
L 3481 0 
L 794 0 
L 794 531 
z
" transform="scale(0.015625)"/>
       </defs>
       <use xlink:href="#DejaVuSans-2212"/>
       <use xlink:href="#DejaVuSans-31" x="83.789062"/>
      </g>
     </g>
    </g>
    <g id="xtick_4">
     <g id="line2d_4">
      <g>
       <use xlink:href="#m2bccd66c3c" x="245.921131" y="273.312" style="stroke: #000000; stroke-width: 0.8"/>
      </g>
     </g>
     <g id="text_4">
      <!-- 0 -->
      <g transform="translate(242.739881 287.910437) scale(0.1 -0.1)">
       <defs>
        <path id="DejaVuSans-30" d="M 2034 4250 
Q 1547 4250 1301 3770 
Q 1056 3291 1056 2328 
Q 1056 1369 1301 889 
Q 1547 409 2034 409 
Q 2525 409 2770 889 
Q 3016 1369 3016 2328 
Q 3016 3291 2770 3770 
Q 2525 4250 2034 4250 
z
M 2034 4750 
Q 2819 4750 3233 4129 
Q 3647 3509 3647 2328 
Q 3647 1150 3233 529 
Q 2819 -91 2034 -91 
Q 1250 -91 836 529 
Q 422 1150 422 2328 
Q 422 3509 836 4129 
Q 1250 4750 2034 4750 
z
" transform="scale(0.015625)"/>
       </defs>
       <use xlink:href="#DejaVuSans-30"/>
      </g>
     </g>
    </g>
    <g id="xtick_5">
     <g id="line2d_5">
      <g>
       <use xlink:href="#m2bccd66c3c" x="314.585943" y="273.312" style="stroke: #000000; stroke-width: 0.8"/>
      </g>
     </g>
     <g id="text_5">
      <!-- 1 -->
      <g transform="translate(311.404693 287.910437) scale(0.1 -0.1)">
       <use xlink:href="#DejaVuSans-31"/>
      </g>
     </g>
    </g>
    <g id="xtick_6">
     <g id="line2d_6">
      <g>
       <use xlink:href="#m2bccd66c3c" x="383.250755" y="273.312" style="stroke: #000000; stroke-width: 0.8"/>
      </g>
     </g>
     <g id="text_6">
      <!-- 2 -->
      <g transform="translate(380.069505 287.910437) scale(0.1 -0.1)">
       <use xlink:href="#DejaVuSans-32"/>
      </g>
     </g>
    </g>
   </g>
   <g id="matplotlib.axis_2">
    <g id="ytick_1">
     <g id="line2d_7">
      <defs>
       <path id="me68e38e852" d="M 0 0 
L -3.5 0 
" style="stroke: #000000; stroke-width: 0.8"/>
      </defs>
      <g>
       <use xlink:href="#me68e38e852" x="28.942188" y="265.233066" style="stroke: #000000; stroke-width: 0.8"/>
      </g>
     </g>
     <g id="text_7">
      <!-- −3 -->
      <g transform="translate(7.2 269.032285) scale(0.1 -0.1)">
       <use xlink:href="#DejaVuSans-2212"/>
       <use xlink:href="#DejaVuSans-33" x="83.789062"/>
      </g>
     </g>
    </g>
    <g id="ytick_2">
     <g id="line2d_8">
      <g>
       <use xlink:href="#me68e38e852" x="28.942188" y="212.859142" style="stroke: #000000; stroke-width: 0.8"/>
      </g>
     </g>
     <g id="text_8">
      <!-- −2 -->
      <g transform="translate(7.2 216.65836) scale(0.1 -0.1)">
       <use xlink:href="#DejaVuSans-2212"/>
       <use xlink:href="#DejaVuSans-32" x="83.789062"/>
      </g>
     </g>
    </g>
    <g id="ytick_3">
     <g id="line2d_9">
      <g>
       <use xlink:href="#me68e38e852" x="28.942188" y="160.485217" style="stroke: #000000; stroke-width: 0.8"/>
      </g>
     </g>
     <g id="text_9">
      <!-- −1 -->
      <g transform="translate(7.2 164.284436) scale(0.1 -0.1)">
       <use xlink:href="#DejaVuSans-2212"/>
       <use xlink:href="#DejaVuSans-31" x="83.789062"/>
      </g>
     </g>
    </g>
    <g id="ytick_4">
     <g id="line2d_10">
      <g>
       <use xlink:href="#me68e38e852" x="28.942188" y="108.111293" style="stroke: #000000; stroke-width: 0.8"/>
      </g>
     </g>
     <g id="text_10">
      <!-- 0 -->
      <g transform="translate(15.579688 111.910511) scale(0.1 -0.1)">
       <use xlink:href="#DejaVuSans-30"/>
      </g>
     </g>
    </g>
    <g id="ytick_5">
     <g id="line2d_11">
      <g>
       <use xlink:href="#me68e38e852" x="28.942188" y="55.737368" style="stroke: #000000; stroke-width: 0.8"/>
      </g>
     </g>
     <g id="text_11">
      <!-- 1 -->
      <g transform="translate(15.579688 59.536587) scale(0.1 -0.1)">
       <use xlink:href="#DejaVuSans-31"/>
      </g>
     </g>
    </g>
   </g>
   <g id="line2d_12">
    <defs>
     <path id="m836b6b0205" d="M 0 1.5 
C 0.397805 1.5 0.77937 1.341951 1.06066 1.06066 
C 1.341951 0.77937 1.5 0.397805 1.5 0 
C 1.5 -0.397805 1.341951 -0.77937 1.06066 -1.06066 
C 0.77937 -1.341951 0.397805 -1.5 0 -1.5 
C -0.397805 -1.5 -0.77937 -1.341951 -1.06066 -1.06066 
C -1.341951 -0.77937 -1.5 -0.397805 -1.5 0 
C -1.5 0.397805 -1.341951 0.77937 -1.06066 1.06066 
C -0.77937 1.341951 -0.397805 1.5 0 1.5 
z
" style="stroke: #1f77b4"/>
    </defs>
    <g clip-path="url(#p49b9ffaf4e)">
     <use xlink:href="#m836b6b0205" x="279.542034" y="145.635701" style="fill: #1f77b4; stroke: #1f77b4"/>
     <use xlink:href="#m836b6b0205" x="157.397828" y="183.754742" style="fill: #1f77b4; stroke: #1f77b4"/>
     <use xlink:href="#m836b6b0205" x="177.096055" y="19.584754" style="fill: #1f77b4; stroke: #1f77b4"/>
     <use xlink:href="#m836b6b0205" x="246.861128" y="147.691759" style="fill: #1f77b4; stroke: #1f77b4"/>
     <use xlink:href="#m836b6b0205" x="158.0688" y="133.041951" style="fill: #1f77b4; stroke: #1f77b4"/>
     <use xlink:href="#m836b6b0205" x="206.278122" y="169.056168" style="fill: #1f77b4; stroke: #1f77b4"/>
    </g>
   </g>
   <g id="line2d_13">
    <defs>
     <path id="md78b5c807b" d="M 0 1.5 
C 0.397805 1.5 0.77937 1.341951 1.06066 1.06066 
C 1.341951 0.77937 1.5 0.397805 1.5 0 
C 1.5 -0.397805 1.341951 -0.77937 1.06066 -1.06066 
C 0.77937 -1.341951 0.397805 -1.5 0 -1.5 
C -0.397805 -1.5 -0.77937 -1.341951 -1.06066 -1.06066 
C -1.341951 -0.77937 -1.5 -0.397805 -1.5 0 
C -1.5 0.397805 -1.341951 0.77937 -1.06066 1.06066 
C -0.77937 1.341951 -0.397805 1.5 0 1.5 
z
" style="stroke: #ff7f0e"/>
    </defs>
    <g clip-path="url(#p49b9ffaf4e)">
     <use xlink:href="#md78b5c807b" x="365.89627" y="105.146016" style="fill: #ff7f0e; stroke: #ff7f0e"/>
     <use xlink:href="#md78b5c807b" x="114.658406" y="42.399899" style="fill: #ff7f0e; stroke: #ff7f0e"/>
     <use xlink:href="#md78b5c807b" x="93.93692" y="228.654529" style="fill: #ff7f0e; stroke: #ff7f0e"/>
     <use xlink:href="#md78b5c807b" x="61.439389" y="186.840928" style="fill: #ff7f0e; stroke: #ff7f0e"/>
     <use xlink:href="#md78b5c807b" x="202.512157" y="121.245122" style="fill: #ff7f0e; stroke: #ff7f0e"/>
     <use xlink:href="#md78b5c807b" x="179.738128" y="216.420847" style="fill: #ff7f0e; stroke: #ff7f0e"/>
     <use xlink:href="#md78b5c807b" x="362.762016" y="149.843152" style="fill: #ff7f0e; stroke: #ff7f0e"/>
     <use xlink:href="#md78b5c807b" x="204.269208" y="80.077675" style="fill: #ff7f0e; stroke: #ff7f0e"/>
     <use xlink:href="#md78b5c807b" x="338.215191" y="120.275612" style="fill: #ff7f0e; stroke: #ff7f0e"/>
     <use xlink:href="#md78b5c807b" x="98.511705" y="131.073593" style="fill: #ff7f0e; stroke: #ff7f0e"/>
     <use xlink:href="#md78b5c807b" x="198.957599" y="178.469998" style="fill: #ff7f0e; stroke: #ff7f0e"/>
     <use xlink:href="#md78b5c807b" x="94.347864" y="110.987275" style="fill: #ff7f0e; stroke: #ff7f0e"/>
     <use xlink:href="#md78b5c807b" x="181.142671" y="92.70933" style="fill: #ff7f0e; stroke: #ff7f0e"/>
    </g>
   </g>
   <g id="line2d_14">
    <defs>
     <path id="m2199a1ceb8" d="M 0 1.5 
C 0.397805 1.5 0.77937 1.341951 1.06066 1.06066 
C 1.341951 0.77937 1.5 0.397805 1.5 0 
C 1.5 -0.397805 1.341951 -0.77937 1.06066 -1.06066 
C 0.77937 -1.341951 0.397805 -1.5 0 -1.5 
C -0.397805 -1.5 -0.77937 -1.341951 -1.06066 -1.06066 
C -1.341951 -0.77937 -1.5 -0.397805 -1.5 0 
C -1.5 0.397805 -1.341951 0.77937 -1.06066 1.06066 
C -0.77937 1.341951 -0.397805 1.5 0 1.5 
z
" style="stroke: #2ca02c"/>
    </defs>
    <g clip-path="url(#p49b9ffaf4e)">
     <use xlink:href="#m2199a1ceb8" x="173.244302" y="160.98711" style="fill: #2ca02c; stroke: #2ca02c"/>
     <use xlink:href="#m2199a1ceb8" x="207.670411" y="261.216" style="fill: #2ca02c; stroke: #2ca02c"/>
     <use xlink:href="#m2199a1ceb8" x="260.561053" y="226.567628" style="fill: #2ca02c; stroke: #2ca02c"/>
     <use xlink:href="#m2199a1ceb8" x="288.682674" y="172.956431" style="fill: #2ca02c; stroke: #2ca02c"/>
     <use xlink:href="#m2199a1ceb8" x="247.36828" y="98.662046" style="fill: #2ca02c; stroke: #2ca02c"/>
     <use xlink:href="#m2199a1ceb8" x="265.806701" y="230.200634" style="fill: #2ca02c; stroke: #2ca02c"/>
    </g>
   </g>
   <g id="line2d_15">
    <defs>
     <path id="meccd670b06" d="M 0 1.5 
C 0.397805 1.5 0.77937 1.341951 1.06066 1.06066 
C 1.341951 0.77937 1.5 0.397805 1.5 0 
C 1.5 -0.397805 1.341951 -0.77937 1.06066 -1.06066 
C 0.77937 -1.341951 0.397805 -1.5 0 -1.5 
C -0.397805 -1.5 -0.77937 -1.341951 -1.06066 -1.06066 
C -1.341951 -0.77937 -1.5 -0.397805 -1.5 0 
C -1.5 0.397805 -1.341951 0.77937 -1.06066 1.06066 
C -0.77937 1.341951 -0.397805 1.5 0 1.5 
z
" style="stroke: #d62728"/>
    </defs>
    <g clip-path="url(#p49b9ffaf4e)">
     <use xlink:href="#meccd670b06" x="196.233994" y="177.439703" style="fill: #d62728; stroke: #d62728"/>
     <use xlink:href="#meccd670b06" x="344.546875" y="74.51293" style="fill: #d62728; stroke: #d62728"/>
     <use xlink:href="#meccd670b06" x="221.485195" y="193.830111" style="fill: #d62728; stroke: #d62728"/>
     <use xlink:href="#meccd670b06" x="142.56592" y="206.747451" style="fill: #d62728; stroke: #d62728"/>
     <use xlink:href="#meccd670b06" x="265.558032" y="66.506269" style="fill: #d62728; stroke: #d62728"/>
     <use xlink:href="#meccd670b06" x="239.527961" y="259.379287" style="fill: #d62728; stroke: #d62728"/>
     <use xlink:href="#meccd670b06" x="301.429252" y="174.598355" style="fill: #d62728; stroke: #d62728"/>
     <use xlink:href="#meccd670b06" x="294.745383" y="66.364799" style="fill: #d62728; stroke: #d62728"/>
     <use xlink:href="#meccd670b06" x="142.659775" y="169.816403" style="fill: #d62728; stroke: #d62728"/>
     <use xlink:href="#meccd670b06" x="141.112538" y="121.404415" style="fill: #d62728; stroke: #d62728"/>
     <use xlink:href="#meccd670b06" x="162.468489" y="183.720166" style="fill: #d62728; stroke: #d62728"/>
     <use xlink:href="#meccd670b06" x="346.906341" y="138.20135" style="fill: #d62728; stroke: #d62728"/>
     <use xlink:href="#meccd670b06" x="179.220278" y="120.179927" style="fill: #d62728; stroke: #d62728"/>
     <use xlink:href="#meccd670b06" x="84.154891" y="97.55151" style="fill: #d62728; stroke: #d62728"/>
     <use xlink:href="#meccd670b06" x="241.012746" y="49.990402" style="fill: #d62728; stroke: #d62728"/>
     <use xlink:href="#meccd670b06" x="237.076225" y="105.177392" style="fill: #d62728; stroke: #d62728"/>
     <use xlink:href="#meccd670b06" x="297.589135" y="107.907487" style="fill: #d62728; stroke: #d62728"/>
     <use xlink:href="#meccd670b06" x="319.53158" y="199.506176" style="fill: #d62728; stroke: #d62728"/>
     <use xlink:href="#meccd670b06" x="187.466138" y="55.049745" style="fill: #d62728; stroke: #d62728"/>
     <use xlink:href="#meccd670b06" x="123.565326" y="145.735456" style="fill: #d62728; stroke: #d62728"/>
     <use xlink:href="#meccd670b06" x="351.00875" y="153.389492" style="fill: #d62728; stroke: #d62728"/>
     <use xlink:href="#meccd670b06" x="271.775111" y="124.60149" style="fill: #d62728; stroke: #d62728"/>
     <use xlink:href="#meccd670b06" x="275.870837" y="24.231423" style="fill: #d62728; stroke: #d62728"/>
     <use xlink:href="#meccd670b06" x="206.559445" y="110.481397" style="fill: #d62728; stroke: #d62728"/>
     <use xlink:href="#meccd670b06" x="203.829979" y="19.296" style="fill: #d62728; stroke: #d62728"/>
     <use xlink:href="#meccd670b06" x="141.043928" y="141.769268" style="fill: #d62728; stroke: #d62728"/>
     <use xlink:href="#meccd670b06" x="269.061904" y="168.245823" style="fill: #d62728; stroke: #d62728"/>
     <use xlink:href="#meccd670b06" x="45.174915" y="136.873572" style="fill: #d62728; stroke: #d62728"/>
     <use xlink:href="#meccd670b06" x="187.333934" y="69.786885" style="fill: #d62728; stroke: #d62728"/>
     <use xlink:href="#meccd670b06" x="212.531375" y="211.760137" style="fill: #d62728; stroke: #d62728"/>
     <use xlink:href="#meccd670b06" x="207.91262" y="50.040125" style="fill: #d62728; stroke: #d62728"/>
     <use xlink:href="#meccd670b06" x="309.535312" y="114.680161" style="fill: #d62728; stroke: #d62728"/>
     <use xlink:href="#meccd670b06" x="317.901113" y="51.247285" style="fill: #d62728; stroke: #d62728"/>
     <use xlink:href="#meccd670b06" x="119.814819" y="186.875803" style="fill: #d62728; stroke: #d62728"/>
     <use xlink:href="#meccd670b06" x="199.4228" y="199.778497" style="fill: #d62728; stroke: #d62728"/>
     <use xlink:href="#meccd670b06" x="258.371361" y="52.197159" style="fill: #d62728; stroke: #d62728"/>
     <use xlink:href="#meccd670b06" x="168.103409" y="152.810983" style="fill: #d62728; stroke: #d62728"/>
    </g>
   </g>
   <g id="line2d_16">
    <defs>
     <path id="m758fdcaa4c" d="M 0 1.5 
C 0.397805 1.5 0.77937 1.341951 1.06066 1.06066 
C 1.341951 0.77937 1.5 0.397805 1.5 0 
C 1.5 -0.397805 1.341951 -0.77937 1.06066 -1.06066 
C 0.77937 -1.341951 0.397805 -1.5 0 -1.5 
C -0.397805 -1.5 -0.77937 -1.341951 -1.06066 -1.06066 
C -1.341951 -0.77937 -1.5 -0.397805 -1.5 0 
C -1.5 0.397805 -1.341951 0.77937 -1.06066 1.06066 
C -0.77937 1.341951 -0.397805 1.5 0 1.5 
z
" style="stroke: #9467bd"/>
    </defs>
    <g clip-path="url(#p49b9ffaf4e)">
     <use xlink:href="#m758fdcaa4c" x="243.553819" y="122.850265" style="fill: #9467bd; stroke: #9467bd"/>
     <use xlink:href="#m758fdcaa4c" x="236.144153" y="171.750514" style="fill: #9467bd; stroke: #9467bd"/>
     <use xlink:href="#m758fdcaa4c" x="241.06031" y="86.864175" style="fill: #9467bd; stroke: #9467bd"/>
     <use xlink:href="#m758fdcaa4c" x="158.772686" y="244.877819" style="fill: #9467bd; stroke: #9467bd"/>
     <use xlink:href="#m758fdcaa4c" x="237.506433" y="153.489494" style="fill: #9467bd; stroke: #9467bd"/>
     <use xlink:href="#m758fdcaa4c" x="168.143739" y="210.222304" style="fill: #9467bd; stroke: #9467bd"/>
     <use xlink:href="#m758fdcaa4c" x="177.912991" y="86.080944" style="fill: #9467bd; stroke: #9467bd"/>
     <use xlink:href="#m758fdcaa4c" x="266.28655" y="205.072381" style="fill: #9467bd; stroke: #9467bd"/>
     <use xlink:href="#m758fdcaa4c" x="134.322901" y="135.071083" style="fill: #9467bd; stroke: #9467bd"/>
     <use xlink:href="#m758fdcaa4c" x="143.143177" y="86.93021" style="fill: #9467bd; stroke: #9467bd"/>
     <use xlink:href="#m758fdcaa4c" x="125.181083" y="193.784733" style="fill: #9467bd; stroke: #9467bd"/>
     <use xlink:href="#m758fdcaa4c" x="304.851467" y="128.394277" style="fill: #9467bd; stroke: #9467bd"/>
     <use xlink:href="#m758fdcaa4c" x="192.019771" y="167.843158" style="fill: #9467bd; stroke: #9467bd"/>
     <use xlink:href="#m758fdcaa4c" x="255.367753" y="186.585183" style="fill: #9467bd; stroke: #9467bd"/>
     <use xlink:href="#m758fdcaa4c" x="231.6828" y="195.264171" style="fill: #9467bd; stroke: #9467bd"/>
     <use xlink:href="#m758fdcaa4c" x="253.188442" y="118.796819" style="fill: #9467bd; stroke: #9467bd"/>
     <use xlink:href="#m758fdcaa4c" x="154.287025" y="237.930061" style="fill: #9467bd; stroke: #9467bd"/>
     <use xlink:href="#m758fdcaa4c" x="197.839507" y="111.267956" style="fill: #9467bd; stroke: #9467bd"/>
     <use xlink:href="#m758fdcaa4c" x="235.435649" y="108.399791" style="fill: #9467bd; stroke: #9467bd"/>
     <use xlink:href="#m758fdcaa4c" x="198.727939" y="244.020167" style="fill: #9467bd; stroke: #9467bd"/>
     <use xlink:href="#m758fdcaa4c" x="369.82946" y="175.466832" style="fill: #9467bd; stroke: #9467bd"/>
     <use xlink:href="#m758fdcaa4c" x="226.246941" y="150.625129" style="fill: #9467bd; stroke: #9467bd"/>
     <use xlink:href="#m758fdcaa4c" x="216.428754" y="135.093668" style="fill: #9467bd; stroke: #9467bd"/>
     <use xlink:href="#m758fdcaa4c" x="311.666766" y="101.858634" style="fill: #9467bd; stroke: #9467bd"/>
    </g>
   </g>
   <g id="line2d_17">
    <defs>
     <path id="m834f5c4493" d="M 0 1.5 
C 0.397805 1.5 0.77937 1.341951 1.06066 1.06066 
C 1.341951 0.77937 1.5 0.397805 1.5 0 
C 1.5 -0.397805 1.341951 -0.77937 1.06066 -1.06066 
C 0.77937 -1.341951 0.397805 -1.5 0 -1.5 
C -0.397805 -1.5 -0.77937 -1.341951 -1.06066 -1.06066 
C -1.341951 -0.77937 -1.5 -0.397805 -1.5 0 
C -1.5 0.397805 -1.341951 0.77937 -1.06066 1.06066 
C -0.77937 1.341951 -0.397805 1.5 0 1.5 
z
" style="stroke: #8c564b"/>
    </defs>
    <g clip-path="url(#p49b9ffaf4e)">
     <use xlink:href="#m834f5c4493" x="224.810339" y="150.043245" style="fill: #8c564b; stroke: #8c564b"/>
     <use xlink:href="#m834f5c4493" x="310.968221" y="150.866233" style="fill: #8c564b; stroke: #8c564b"/>
     <use xlink:href="#m834f5c4493" x="75.274493" y="182.010707" style="fill: #8c564b; stroke: #8c564b"/>
     <use xlink:href="#m834f5c4493" x="272.417752" y="92.413576" style="fill: #8c564b; stroke: #8c564b"/>
     <use xlink:href="#m834f5c4493" x="246.618055" y="100.621044" style="fill: #8c564b; stroke: #8c564b"/>
     <use xlink:href="#m834f5c4493" x="118.364278" y="161.358327" style="fill: #8c564b; stroke: #8c564b"/>
     <use xlink:href="#m834f5c4493" x="341.394572" y="213.716044" style="fill: #8c564b; stroke: #8c564b"/>
     <use xlink:href="#m834f5c4493" x="116.511968" y="82.997587" style="fill: #8c564b; stroke: #8c564b"/>
     <use xlink:href="#m834f5c4493" x="276.070468" y="151.041927" style="fill: #8c564b; stroke: #8c564b"/>
     <use xlink:href="#m834f5c4493" x="91.647457" y="62.502296" style="fill: #8c564b; stroke: #8c564b"/>
     <use xlink:href="#m834f5c4493" x="209.978824" y="165.785645" style="fill: #8c564b; stroke: #8c564b"/>
     <use xlink:href="#m834f5c4493" x="166.008572" y="124.10788" style="fill: #8c564b; stroke: #8c564b"/>
     <use xlink:href="#m834f5c4493" x="223.179513" y="167.652139" style="fill: #8c564b; stroke: #8c564b"/>
    </g>
   </g>
   <g id="line2d_18">
    <defs>
     <path id="m5eed65668a" d="M 0 1.5 
C 0.397805 1.5 0.77937 1.341951 1.06066 1.06066 
C 1.341951 0.77937 1.5 0.397805 1.5 0 
C 1.5 -0.397805 1.341951 -0.77937 1.06066 -1.06066 
C 0.77937 -1.341951 0.397805 -1.5 0 -1.5 
C -0.397805 -1.5 -0.77937 -1.341951 -1.06066 -1.06066 
C -1.341951 -0.77937 -1.5 -0.397805 -1.5 0 
C -1.5 0.397805 -1.341951 0.77937 -1.06066 1.06066 
C -0.77937 1.341951 -0.397805 1.5 0 1.5 
z
" style="stroke: #e377c2"/>
    </defs>
    <g clip-path="url(#p49b9ffaf4e)">
     <use xlink:href="#m5eed65668a" x="202.132023" y="111.704365" style="fill: #e377c2; stroke: #e377c2"/>
     <use xlink:href="#m5eed65668a" x="236.730532" y="142.809397" style="fill: #e377c2; stroke: #e377c2"/>
     <use xlink:href="#m5eed65668a" x="174.927573" y="65.557616" style="fill: #e377c2; stroke: #e377c2"/>
     <use xlink:href="#m5eed65668a" x="243.101847" y="143.735845" style="fill: #e377c2; stroke: #e377c2"/>
     <use xlink:href="#m5eed65668a" x="169.217069" y="148.27109" style="fill: #e377c2; stroke: #e377c2"/>
     <use xlink:href="#m5eed65668a" x="245.964181" y="133.370489" style="fill: #e377c2; stroke: #e377c2"/>
     <use xlink:href="#m5eed65668a" x="146.302577" y="88.346757" style="fill: #e377c2; stroke: #e377c2"/>
     <use xlink:href="#m5eed65668a" x="310.387371" y="238.910633" style="fill: #e377c2; stroke: #e377c2"/>
    </g>
   </g>
   <g id="patch_3">
    <path d="M 28.942188 273.312 
L 28.942188 7.2 
" style="fill: none; stroke: #000000; stroke-width: 0.8; stroke-linejoin: miter; stroke-linecap: square"/>
   </g>
   <g id="patch_4">
    <path d="M 386.062188 273.312 
L 386.062188 7.2 
" style="fill: none; stroke: #000000; stroke-width: 0.8; stroke-linejoin: miter; stroke-linecap: square"/>
   </g>
   <g id="patch_5">
    <path d="M 28.942187 273.312 
L 386.062188 273.312 
" style="fill: none; stroke: #000000; stroke-width: 0.8; stroke-linejoin: miter; stroke-linecap: square"/>
   </g>
   <g id="patch_6">
    <path d="M 28.942187 7.2 
L 386.062188 7.2 
" style="fill: none; stroke: #000000; stroke-width: 0.8; stroke-linejoin: miter; stroke-linecap: square"/>
   </g>
   <g id="legend_1">
    <g id="patch_7">
     <path d="M 393.062188 117.946875 
L 482.518438 117.946875 
Q 484.518438 117.946875 484.518438 115.946875 
L 484.518438 14.2 
Q 484.518438 12.2 482.518438 12.2 
L 393.062188 12.2 
Q 391.062188 12.2 391.062188 14.2 
L 391.062188 115.946875 
Q 391.062188 117.946875 393.062188 117.946875 
z
" style="fill: #ffffff; opacity: 0.8; stroke: #cccccc; stroke-linejoin: miter"/>
    </g>
    <g id="line2d_19">
     <g>
      <use xlink:href="#m836b6b0205" x="405.062188" y="20.298437" style="fill: #1f77b4; stroke: #1f77b4"/>
     </g>
    </g>
    <g id="text_12">
     <!-- bioarx -->
     <g transform="translate(423.062188 23.798437) scale(0.1 -0.1)">
      <defs>
       <path id="DejaVuSans-62" d="M 3116 1747 
Q 3116 2381 2855 2742 
Q 2594 3103 2138 3103 
Q 1681 3103 1420 2742 
Q 1159 2381 1159 1747 
Q 1159 1113 1420 752 
Q 1681 391 2138 391 
Q 2594 391 2855 752 
Q 3116 1113 3116 1747 
z
M 1159 2969 
Q 1341 3281 1617 3432 
Q 1894 3584 2278 3584 
Q 2916 3584 3314 3078 
Q 3713 2572 3713 1747 
Q 3713 922 3314 415 
Q 2916 -91 2278 -91 
Q 1894 -91 1617 61 
Q 1341 213 1159 525 
L 1159 0 
L 581 0 
L 581 4863 
L 1159 4863 
L 1159 2969 
z
" transform="scale(0.015625)"/>
       <path id="DejaVuSans-69" d="M 603 3500 
L 1178 3500 
L 1178 0 
L 603 0 
L 603 3500 
z
M 603 4863 
L 1178 4863 
L 1178 4134 
L 603 4134 
L 603 4863 
z
" transform="scale(0.015625)"/>
       <path id="DejaVuSans-6f" d="M 1959 3097 
Q 1497 3097 1228 2736 
Q 959 2375 959 1747 
Q 959 1119 1226 758 
Q 1494 397 1959 397 
Q 2419 397 2687 759 
Q 2956 1122 2956 1747 
Q 2956 2369 2687 2733 
Q 2419 3097 1959 3097 
z
M 1959 3584 
Q 2709 3584 3137 3096 
Q 3566 2609 3566 1747 
Q 3566 888 3137 398 
Q 2709 -91 1959 -91 
Q 1206 -91 779 398 
Q 353 888 353 1747 
Q 353 2609 779 3096 
Q 1206 3584 1959 3584 
z
" transform="scale(0.015625)"/>
       <path id="DejaVuSans-61" d="M 2194 1759 
Q 1497 1759 1228 1600 
Q 959 1441 959 1056 
Q 959 750 1161 570 
Q 1363 391 1709 391 
Q 2188 391 2477 730 
Q 2766 1069 2766 1631 
L 2766 1759 
L 2194 1759 
z
M 3341 1997 
L 3341 0 
L 2766 0 
L 2766 531 
Q 2569 213 2275 61 
Q 1981 -91 1556 -91 
Q 1019 -91 701 211 
Q 384 513 384 1019 
Q 384 1609 779 1909 
Q 1175 2209 1959 2209 
L 2766 2209 
L 2766 2266 
Q 2766 2663 2505 2880 
Q 2244 3097 1772 3097 
Q 1472 3097 1187 3025 
Q 903 2953 641 2809 
L 641 3341 
Q 956 3463 1253 3523 
Q 1550 3584 1831 3584 
Q 2591 3584 2966 3190 
Q 3341 2797 3341 1997 
z
" transform="scale(0.015625)"/>
       <path id="DejaVuSans-72" d="M 2631 2963 
Q 2534 3019 2420 3045 
Q 2306 3072 2169 3072 
Q 1681 3072 1420 2755 
Q 1159 2438 1159 1844 
L 1159 0 
L 581 0 
L 581 3500 
L 1159 3500 
L 1159 2956 
Q 1341 3275 1631 3429 
Q 1922 3584 2338 3584 
Q 2397 3584 2469 3576 
Q 2541 3569 2628 3553 
L 2631 2963 
z
" transform="scale(0.015625)"/>
       <path id="DejaVuSans-78" d="M 3513 3500 
L 2247 1797 
L 3578 0 
L 2900 0 
L 1881 1375 
L 863 0 
L 184 0 
L 1544 1831 
L 300 3500 
L 978 3500 
L 1906 2253 
L 2834 3500 
L 3513 3500 
z
" transform="scale(0.015625)"/>
      </defs>
      <use xlink:href="#DejaVuSans-62"/>
      <use xlink:href="#DejaVuSans-69" x="63.476562"/>
      <use xlink:href="#DejaVuSans-6f" x="91.259766"/>
      <use xlink:href="#DejaVuSans-61" x="152.441406"/>
      <use xlink:href="#DejaVuSans-72" x="213.720703"/>
      <use xlink:href="#DejaVuSans-78" x="252.208984"/>
     </g>
    </g>
    <g id="line2d_20">
     <g>
      <use xlink:href="#md78b5c807b" x="405.062188" y="34.976562" style="fill: #ff7f0e; stroke: #ff7f0e"/>
     </g>
    </g>
    <g id="text_13">
     <!-- DGIDB -->
     <g transform="translate(423.062188 38.476562) scale(0.1 -0.1)">
      <defs>
       <path id="DejaVuSans-44" d="M 1259 4147 
L 1259 519 
L 2022 519 
Q 2988 519 3436 956 
Q 3884 1394 3884 2338 
Q 3884 3275 3436 3711 
Q 2988 4147 2022 4147 
L 1259 4147 
z
M 628 4666 
L 1925 4666 
Q 3281 4666 3915 4102 
Q 4550 3538 4550 2338 
Q 4550 1131 3912 565 
Q 3275 0 1925 0 
L 628 0 
L 628 4666 
z
" transform="scale(0.015625)"/>
       <path id="DejaVuSans-47" d="M 3809 666 
L 3809 1919 
L 2778 1919 
L 2778 2438 
L 4434 2438 
L 4434 434 
Q 4069 175 3628 42 
Q 3188 -91 2688 -91 
Q 1594 -91 976 548 
Q 359 1188 359 2328 
Q 359 3472 976 4111 
Q 1594 4750 2688 4750 
Q 3144 4750 3555 4637 
Q 3966 4525 4313 4306 
L 4313 3634 
Q 3963 3931 3569 4081 
Q 3175 4231 2741 4231 
Q 1884 4231 1454 3753 
Q 1025 3275 1025 2328 
Q 1025 1384 1454 906 
Q 1884 428 2741 428 
Q 3075 428 3337 486 
Q 3600 544 3809 666 
z
" transform="scale(0.015625)"/>
       <path id="DejaVuSans-49" d="M 628 4666 
L 1259 4666 
L 1259 0 
L 628 0 
L 628 4666 
z
" transform="scale(0.015625)"/>
       <path id="DejaVuSans-42" d="M 1259 2228 
L 1259 519 
L 2272 519 
Q 2781 519 3026 730 
Q 3272 941 3272 1375 
Q 3272 1813 3026 2020 
Q 2781 2228 2272 2228 
L 1259 2228 
z
M 1259 4147 
L 1259 2741 
L 2194 2741 
Q 2656 2741 2882 2914 
Q 3109 3088 3109 3444 
Q 3109 3797 2882 3972 
Q 2656 4147 2194 4147 
L 1259 4147 
z
M 628 4666 
L 2241 4666 
Q 2963 4666 3353 4366 
Q 3744 4066 3744 3513 
Q 3744 3084 3544 2831 
Q 3344 2578 2956 2516 
Q 3422 2416 3680 2098 
Q 3938 1781 3938 1306 
Q 3938 681 3513 340 
Q 3088 0 2303 0 
L 628 0 
L 628 4666 
z
" transform="scale(0.015625)"/>
      </defs>
      <use xlink:href="#DejaVuSans-44"/>
      <use xlink:href="#DejaVuSans-47" x="77.001953"/>
      <use xlink:href="#DejaVuSans-49" x="154.492188"/>
      <use xlink:href="#DejaVuSans-44" x="183.984375"/>
      <use xlink:href="#DejaVuSans-42" x="260.986328"/>
     </g>
    </g>
    <g id="line2d_21">
     <g>
      <use xlink:href="#m2199a1ceb8" x="405.062188" y="49.654687" style="fill: #2ca02c; stroke: #2ca02c"/>
     </g>
    </g>
    <g id="text_14">
     <!-- DRUGBANK -->
     <g transform="translate(423.062188 53.154687) scale(0.1 -0.1)">
      <defs>
       <path id="DejaVuSans-52" d="M 2841 2188 
Q 3044 2119 3236 1894 
Q 3428 1669 3622 1275 
L 4263 0 
L 3584 0 
L 2988 1197 
Q 2756 1666 2539 1819 
Q 2322 1972 1947 1972 
L 1259 1972 
L 1259 0 
L 628 0 
L 628 4666 
L 2053 4666 
Q 2853 4666 3247 4331 
Q 3641 3997 3641 3322 
Q 3641 2881 3436 2590 
Q 3231 2300 2841 2188 
z
M 1259 4147 
L 1259 2491 
L 2053 2491 
Q 2509 2491 2742 2702 
Q 2975 2913 2975 3322 
Q 2975 3731 2742 3939 
Q 2509 4147 2053 4147 
L 1259 4147 
z
" transform="scale(0.015625)"/>
       <path id="DejaVuSans-55" d="M 556 4666 
L 1191 4666 
L 1191 1831 
Q 1191 1081 1462 751 
Q 1734 422 2344 422 
Q 2950 422 3222 751 
Q 3494 1081 3494 1831 
L 3494 4666 
L 4128 4666 
L 4128 1753 
Q 4128 841 3676 375 
Q 3225 -91 2344 -91 
Q 1459 -91 1007 375 
Q 556 841 556 1753 
L 556 4666 
z
" transform="scale(0.015625)"/>
       <path id="DejaVuSans-41" d="M 2188 4044 
L 1331 1722 
L 3047 1722 
L 2188 4044 
z
M 1831 4666 
L 2547 4666 
L 4325 0 
L 3669 0 
L 3244 1197 
L 1141 1197 
L 716 0 
L 50 0 
L 1831 4666 
z
" transform="scale(0.015625)"/>
       <path id="DejaVuSans-4e" d="M 628 4666 
L 1478 4666 
L 3547 763 
L 3547 4666 
L 4159 4666 
L 4159 0 
L 3309 0 
L 1241 3903 
L 1241 0 
L 628 0 
L 628 4666 
z
" transform="scale(0.015625)"/>
       <path id="DejaVuSans-4b" d="M 628 4666 
L 1259 4666 
L 1259 2694 
L 3353 4666 
L 4166 4666 
L 1850 2491 
L 4331 0 
L 3500 0 
L 1259 2247 
L 1259 0 
L 628 0 
L 628 4666 
z
" transform="scale(0.015625)"/>
      </defs>
      <use xlink:href="#DejaVuSans-44"/>
      <use xlink:href="#DejaVuSans-52" x="77.001953"/>
      <use xlink:href="#DejaVuSans-55" x="146.484375"/>
      <use xlink:href="#DejaVuSans-47" x="219.677734"/>
      <use xlink:href="#DejaVuSans-42" x="297.167969"/>
      <use xlink:href="#DejaVuSans-41" x="365.771484"/>
      <use xlink:href="#DejaVuSans-4e" x="434.179688"/>
      <use xlink:href="#DejaVuSans-4b" x="508.984375"/>
     </g>
    </g>
    <g id="line2d_22">
     <g>
      <use xlink:href="#meccd670b06" x="405.062188" y="64.332812" style="fill: #d62728; stroke: #d62728"/>
     </g>
    </g>
    <g id="text_15">
     <!-- GNBR -->
     <g transform="translate(423.062188 67.832812) scale(0.1 -0.1)">
      <use xlink:href="#DejaVuSans-47"/>
      <use xlink:href="#DejaVuSans-4e" x="77.490234"/>
      <use xlink:href="#DejaVuSans-42" x="152.294922"/>
      <use xlink:href="#DejaVuSans-52" x="220.898438"/>
     </g>
    </g>
    <g id="line2d_23">
     <g>
      <use xlink:href="#m758fdcaa4c" x="405.062188" y="79.010937" style="fill: #9467bd; stroke: #9467bd"/>
     </g>
    </g>
    <g id="text_16">
     <!-- Hetionet -->
     <g transform="translate(423.062188 82.510937) scale(0.1 -0.1)">
      <defs>
       <path id="DejaVuSans-48" d="M 628 4666 
L 1259 4666 
L 1259 2753 
L 3553 2753 
L 3553 4666 
L 4184 4666 
L 4184 0 
L 3553 0 
L 3553 2222 
L 1259 2222 
L 1259 0 
L 628 0 
L 628 4666 
z
" transform="scale(0.015625)"/>
       <path id="DejaVuSans-65" d="M 3597 1894 
L 3597 1613 
L 953 1613 
Q 991 1019 1311 708 
Q 1631 397 2203 397 
Q 2534 397 2845 478 
Q 3156 559 3463 722 
L 3463 178 
Q 3153 47 2828 -22 
Q 2503 -91 2169 -91 
Q 1331 -91 842 396 
Q 353 884 353 1716 
Q 353 2575 817 3079 
Q 1281 3584 2069 3584 
Q 2775 3584 3186 3129 
Q 3597 2675 3597 1894 
z
M 3022 2063 
Q 3016 2534 2758 2815 
Q 2500 3097 2075 3097 
Q 1594 3097 1305 2825 
Q 1016 2553 972 2059 
L 3022 2063 
z
" transform="scale(0.015625)"/>
       <path id="DejaVuSans-74" d="M 1172 4494 
L 1172 3500 
L 2356 3500 
L 2356 3053 
L 1172 3053 
L 1172 1153 
Q 1172 725 1289 603 
Q 1406 481 1766 481 
L 2356 481 
L 2356 0 
L 1766 0 
Q 1100 0 847 248 
Q 594 497 594 1153 
L 594 3053 
L 172 3053 
L 172 3500 
L 594 3500 
L 594 4494 
L 1172 4494 
z
" transform="scale(0.015625)"/>
       <path id="DejaVuSans-6e" d="M 3513 2113 
L 3513 0 
L 2938 0 
L 2938 2094 
Q 2938 2591 2744 2837 
Q 2550 3084 2163 3084 
Q 1697 3084 1428 2787 
Q 1159 2491 1159 1978 
L 1159 0 
L 581 0 
L 581 3500 
L 1159 3500 
L 1159 2956 
Q 1366 3272 1645 3428 
Q 1925 3584 2291 3584 
Q 2894 3584 3203 3211 
Q 3513 2838 3513 2113 
z
" transform="scale(0.015625)"/>
      </defs>
      <use xlink:href="#DejaVuSans-48"/>
      <use xlink:href="#DejaVuSans-65" x="75.195312"/>
      <use xlink:href="#DejaVuSans-74" x="136.71875"/>
      <use xlink:href="#DejaVuSans-69" x="175.927734"/>
      <use xlink:href="#DejaVuSans-6f" x="203.710938"/>
      <use xlink:href="#DejaVuSans-6e" x="264.892578"/>
      <use xlink:href="#DejaVuSans-65" x="328.271484"/>
      <use xlink:href="#DejaVuSans-74" x="389.794922"/>
     </g>
    </g>
    <g id="line2d_24">
     <g>
      <use xlink:href="#m834f5c4493" x="405.062188" y="93.689062" style="fill: #8c564b; stroke: #8c564b"/>
     </g>
    </g>
    <g id="text_17">
     <!-- INTACT -->
     <g transform="translate(423.062188 97.189062) scale(0.1 -0.1)">
      <defs>
       <path id="DejaVuSans-54" d="M -19 4666 
L 3928 4666 
L 3928 4134 
L 2272 4134 
L 2272 0 
L 1638 0 
L 1638 4134 
L -19 4134 
L -19 4666 
z
" transform="scale(0.015625)"/>
       <path id="DejaVuSans-43" d="M 4122 4306 
L 4122 3641 
Q 3803 3938 3442 4084 
Q 3081 4231 2675 4231 
Q 1875 4231 1450 3742 
Q 1025 3253 1025 2328 
Q 1025 1406 1450 917 
Q 1875 428 2675 428 
Q 3081 428 3442 575 
Q 3803 722 4122 1019 
L 4122 359 
Q 3791 134 3420 21 
Q 3050 -91 2638 -91 
Q 1578 -91 968 557 
Q 359 1206 359 2328 
Q 359 3453 968 4101 
Q 1578 4750 2638 4750 
Q 3056 4750 3426 4639 
Q 3797 4528 4122 4306 
z
" transform="scale(0.015625)"/>
      </defs>
      <use xlink:href="#DejaVuSans-49"/>
      <use xlink:href="#DejaVuSans-4e" x="29.492188"/>
      <use xlink:href="#DejaVuSans-54" x="104.296875"/>
      <use xlink:href="#DejaVuSans-41" x="157.630859"/>
      <use xlink:href="#DejaVuSans-43" x="224.289062"/>
      <use xlink:href="#DejaVuSans-54" x="294.113281"/>
     </g>
    </g>
    <g id="line2d_25">
     <g>
      <use xlink:href="#m5eed65668a" x="405.062188" y="108.367187" style="fill: #e377c2; stroke: #e377c2"/>
     </g>
    </g>
    <g id="text_18">
     <!-- STRING -->
     <g transform="translate(423.062188 111.867187) scale(0.1 -0.1)">
      <defs>
       <path id="DejaVuSans-53" d="M 3425 4513 
L 3425 3897 
Q 3066 4069 2747 4153 
Q 2428 4238 2131 4238 
Q 1616 4238 1336 4038 
Q 1056 3838 1056 3469 
Q 1056 3159 1242 3001 
Q 1428 2844 1947 2747 
L 2328 2669 
Q 3034 2534 3370 2195 
Q 3706 1856 3706 1288 
Q 3706 609 3251 259 
Q 2797 -91 1919 -91 
Q 1588 -91 1214 -16 
Q 841 59 441 206 
L 441 856 
Q 825 641 1194 531 
Q 1563 422 1919 422 
Q 2459 422 2753 634 
Q 3047 847 3047 1241 
Q 3047 1584 2836 1778 
Q 2625 1972 2144 2069 
L 1759 2144 
Q 1053 2284 737 2584 
Q 422 2884 422 3419 
Q 422 4038 858 4394 
Q 1294 4750 2059 4750 
Q 2388 4750 2728 4690 
Q 3069 4631 3425 4513 
z
" transform="scale(0.015625)"/>
      </defs>
      <use xlink:href="#DejaVuSans-53"/>
      <use xlink:href="#DejaVuSans-54" x="63.476562"/>
      <use xlink:href="#DejaVuSans-52" x="124.560547"/>
      <use xlink:href="#DejaVuSans-49" x="194.042969"/>
      <use xlink:href="#DejaVuSans-4e" x="223.535156"/>
      <use xlink:href="#DejaVuSans-47" x="298.339844"/>
     </g>
    </g>
   </g>
  </g>
 </g>
 <defs>
  <clipPath id="p49b9ffaf4e">
   <rect x="28.942188" y="7.2" width="357.12" height="266.112"/>
  </clipPath>
 </defs>
</svg>
